# xmcd
#
# Track frame offsets: 
#        150
#        25044
#        38074
#        48814
#        63814
#        77866
#        97796
#        116651
#        141984
#        161236
#        186556
#        199764
#        216432
#
# Disc length: 3072 seconds
#
# Revision: 0
# Processed by: cddbd v1.5.2PL0 Copyright (c) Steve Scherf et al.
# Submitted via: ExactAudioCopy v0.95b4
#
DISCID=b40bfe0d
DTITLE=Various Artist -  Blues Music One Stop Series, Vol 10, Disk 2
DYEAR=2006
DGENRE=Blues
TTITLE0=Abbey Lincoln - Let Up
TTITLE1=Odetta - Yonder Comes The Blues
TTITLE2=Odetta - Go Down, Sunshine
TTITLE3=Odetta - Oh, Papa
TTITLE4=Odetta - Believe I'll Go
TTITLE5=Odetta - Oh, My Babe
TTITLE6=Odetta - Hard, Oh Lord
TTITLE7=Mildred Anderson - Everybody's Got Somebody But Me
TTITLE8=Mildred Anderson - Hard Times
TTITLE9=Ernestine Allen - Miss Allen's Blues
TTITLE10=Victoria Spivey - Beautiful World
TTITLE11=Victoria Spivey - A Big One
TTITLE12=Victoria Spivey - I Got The Blues So Bad
EXTD=
EXTT0=
EXTT1=
EXTT2=
EXTT3=
EXTT4=
EXTT5=
EXTT6=
EXTT7=
EXTT8=
EXTT9=
EXTT10=
EXTT11=
EXTT12=
PLAYORDER=
